<svg id="Capa_1" enable-background="new 0 0 511.998 511.998" height="512" viewBox="0 0 511.998 511.998" width="512" xmlns="http://www.w3.org/2000/svg"><g><path d="m492.928 398.051-70.556-70.553c-3.905-3.904-10.235-3.904-14.141-.001l-3.448 3.447-24.266-24.278c-1.875-1.876-4.419-2.93-7.071-2.931 0 0-.001 0-.002 0-2.651 0-5.194 1.053-7.069 2.927l-5.522 5.519-47.433-47.412c23.636-35.286 32.792-77.942 26.618-119.047h32.427c4.332 14.678 17.938 25.426 34.018 25.426 19.54 0 35.438-15.892 35.438-35.426s-15.897-35.426-35.438-35.426c-16.079 0-29.685 10.748-34.018 25.426h-36.687c-4.76-17.136-12.304-33.731-22.709-49.096-3.097-4.573-9.315-5.769-13.888-2.672s-5.77 9.314-2.673 13.887c8.076 11.925 14.2 24.689 18.411 37.881h-21.729c-3.503 0-6.751 1.833-8.562 4.833l-19.176 31.77-28.812-62.158c-1.621-3.497-5.218-5.794-9.073-5.794s-7.452 2.297-9.073 5.794l-28.816 62.167-19.202-31.782c-1.811-2.997-5.057-4.829-8.559-4.829h-26.754c-4.329-14.678-17.924-25.426-33.991-25.426-19.556 0-35.466 15.892-35.466 35.426s15.91 35.426 35.466 35.426c16.067 0 29.662-10.748 33.991-25.426h21.112l26.008 43.048c4.064 6.728 14.329 6.159 17.632-.966l27.651-59.654 27.651 59.654c3.304 7.128 13.571 7.694 17.634.962l25.98-43.044h20.954c6.723 39.272-3.453 79.943-26.801 113.346-16.294 23.311-42.16 38.762-46.179 41.047-3.229-5.927-9.524-9.958-16.744-9.958h-1.748c-2.029-6.66-4.703-13.103-7.997-19.269l1.246-1.245c3.59-3.589 5.568-8.371 5.568-13.465s-1.978-9.876-5.574-13.47l-17.888-17.853c-7.424-7.421-19.505-7.421-26.929 0l-1.225 1.224c-6.144-3.273-12.59-5.943-19.281-7.986v-1.728c0-10.5-8.544-19.042-19.046-19.042h-25.295c-10.487 0-19.018 8.542-19.018 19.042v1.725c-6.693 2.042-13.143 4.715-19.297 7.996l-1.237-1.231c-7.425-7.421-19.505-7.421-26.929 0l-7.411 7.408c-25.24-55.7-13.605-122.388 30.311-166.284 43.663-43.618 108.38-55.774 164.877-30.97 4.99 2.19 10.986-.146 13.176-5.136 2.191-4.99-.146-10.985-5.136-13.176-30.744-13.498-64.532-17.492-97.71-11.554-33.958 6.079-64.853 22.223-89.344 46.689-51.928 51.904-64.078 131.898-30.549 196.604-1.069 2.405-1.647 5.025-1.647 7.741 0 5.094 1.977 9.875 5.553 13.45l1.25 1.254c-3.287 6.168-5.961 12.613-8 19.274h-1.762c-10.488.001-19.019 8.531-19.019 19.015v25.285c0 10.5 8.531 19.042 19.018 19.042h1.765c2.04 6.661 4.71 13.1 7.99 19.259l-1.228 1.227c-3.59 3.589-5.567 8.371-5.567 13.465s1.977 9.875 5.562 13.459l17.872 17.892c7.425 7.42 19.505 7.42 26.929 0l1.246-1.245c6.158 3.291 12.607 5.963 19.289 7.994v1.74c0 10.5 8.531 19.042 19.018 19.042h25.295c10.502 0 19.046-8.542 19.046-19.042v-1.744c6.666-2.03 13.106-4.7 19.269-7.987l1.237 1.242c7.425 7.42 19.505 7.419 26.929 0l17.895-17.886c3.59-3.589 5.568-8.371 5.568-13.465s-1.978-9.875-5.583-13.479l-1.223-1.217c3.287-6.157 5.957-12.594 7.987-19.253h1.75c10.502 0 19.046-8.542 19.046-19.042v-12.905c6.26-3.148 12.297-6.671 18.091-10.556l47.419 47.399-5.501 5.499c-1.877 1.875-2.931 4.42-2.931 7.073s1.054 5.197 2.931 7.073l24.275 24.264-3.431 3.429c-1.876 1.875-2.931 4.419-2.931 7.072 0 2.652 1.054 5.196 2.929 7.072l70.558 70.555c12.738 12.733 29.472 19.099 46.204 19.099 16.733 0 33.466-6.366 46.204-19.099 9.434-9.43 15.82-21.663 18.099-34.811 2.288-13.194.529-27.03-5.157-39.166-3.201-6.832-7.608-13.074-12.941-18.405zm-86.447-277.755c8.513 0 15.438 6.92 15.438 15.426s-6.925 15.426-15.438 15.426c-8.528 0-15.466-6.92-15.466-15.426s6.938-15.426 15.466-15.426zm-305.308 30.853c-8.528 0-15.466-6.92-15.466-15.426s6.938-15.426 15.466-15.426c8.512 0 15.438 6.92 15.438 15.426s-6.926 15.426-15.438 15.426zm127.936 182.349h-8.49c-4.679 0-8.731 3.244-9.757 7.809-2.21 9.841-6.082 19.172-11.508 27.736-2.509 3.96-1.93 9.132 1.393 12.439l5.995 5.967-16.536 16.529-5.976-5.999c-3.308-3.319-8.476-3.898-12.433-1.392-8.569 5.424-17.906 9.295-27.751 11.504-4.566 1.024-7.811 5.078-7.811 9.757v8.482h-23.36v-8.482c0-4.681-3.248-8.736-7.816-9.759-9.869-2.208-19.2-6.076-27.735-11.495-3.953-2.51-9.118-1.94-12.43 1.369l-6.018 6.015-16.511-16.53 5.983-5.981c3.305-3.303 3.881-8.455 1.389-12.407-5.409-8.578-9.286-17.924-11.525-27.778-1.034-4.554-5.082-7.785-9.751-7.785h-8.461v-23.341h8.461c4.671 0 8.721-3.234 9.753-7.791 2.229-9.836 6.106-19.181 11.523-27.772 2.488-3.946 1.918-9.087-1.374-12.392l-6-6.022 16.513-16.506 6.031 6.003c3.31 3.293 8.458 3.859 12.403 1.362 8.521-5.394 17.864-9.266 27.77-11.508 4.557-1.031 7.792-5.081 7.792-9.753v-8.454h23.36v8.454c0 4.67 3.233 8.719 7.787 9.752 9.923 2.252 19.269 6.124 27.775 11.509 3.951 2.502 9.11 1.93 12.418-1.376l5.99-5.988 16.538 16.504-6.011 6.008c-3.311 3.309-3.883 8.471-1.378 12.425 5.435 8.578 9.306 17.908 11.507 27.731 1.023 4.567 5.078 7.814 9.758 7.814h8.49v23.342zm54.149-34.73c6.419-5.525 12.415-11.518 17.938-17.939l45.511 45.491-17.943 17.935zm47.075 72.197 5.23-5.228c.095-.088.195-.167.287-.26.091-.091.169-.189.255-.282l37.335-37.318 17.197 17.206-43.099 43.08zm148.454 105.319c-17.683 17.673-46.45 17.672-64.129.001l-63.483-63.48 64.125-64.095 63.487 63.485c13.363 13.356 16.967 34.352 8.913 51.442-2.211 4.692-5.245 8.982-8.913 12.647z"/><path d="m124.54 258.75c-34.786 0-63.087 28.29-63.087 63.063s28.301 63.064 63.087 63.064c34.787 0 63.087-28.291 63.087-63.064s-28.3-63.063-63.087-63.063zm0 106.127c-23.758 0-43.087-19.318-43.087-43.064 0-23.745 19.329-43.063 43.087-43.063s43.087 19.318 43.087 43.063c0 23.746-19.329 43.064-43.087 43.064z"/><path d="m268.053 56.48c1.949 1.949 4.499 2.922 7.051 2.922 2.56 0 5.121-.98 7.077-2.936 3.905-3.905 3.892-10.251-.014-14.157-3.906-3.905-10.236-3.905-14.143 0-3.905 3.905-3.905 10.237 0 14.143z"/></g></svg>