<svg id="Capa_1" enable-background="new 0 0 512 512" height="512" viewBox="0 0 512 512" width="512" xmlns="http://www.w3.org/2000/svg"><g><g><path d="m163.606 343.245h93.711c5.523 0 10-4.477 10-10s-4.477-10-10-10h-93.711c-5.523 0-10 4.477-10 10s4.477 10 10 10z"/><path d="m118.962 343.245c5.523 0 10-4.477 10-10s-4.477-10-10-10h-.057c-5.523 0-9.972 4.477-9.972 10s4.506 10 10.029 10z"/><path d="m74.657 343.245c5.523 0 10-4.477 10-10s-4.477-10-10-10h-.057c-5.523 0-9.972 4.477-9.972 10s4.506 10 10.029 10z"/><path d="m257.318 429.046h-93.711c-5.523 0-10 4.477-10 10s4.477 10 10 10h93.711c5.523 0 10-4.477 10-10s-4.477-10-10-10z"/><path d="m118.905 429.046c-5.523 0-9.972 4.477-9.972 10s4.506 10 10.029 10 10-4.477 10-10-4.477-10-10-10z"/><path d="m74.6 429.046c-5.523 0-9.972 4.477-9.972 10s4.506 10 10.029 10 10-4.477 10-10-4.477-10-10-10z"/><path d="m448.469 73.055c-40.971-40.984-95.448-63.555-153.394-63.555-119.597 0-216.896 97.337-216.896 216.98 0 14.958 1.538 29.845 4.566 44.418h-72.745c-5.523 0-10 4.477-10 10v105.801 105.801c0 5.523 4.477 10 10 10h176.057c5.523 0 10-4.477 10-10s-4.477-10-10-10h-166.057v-85.801h291.947v85.801h-36.062c-5.523 0-10 4.477-10 10s4.477 10 10 10h46.062c5.523 0 10-4.477 10-10v-52.172c48.427-8.302 92.756-32.964 125.602-70.077 35.113-39.677 54.451-90.735 54.451-143.771 0-57.957-22.562-112.444-63.531-153.425zm43.273 143.425h-79.568c-.861-35.894-6.331-70.24-15.884-100.496 17.22-4.846 33.239-10.974 47.679-18.286 27.872 32.199 45.498 73.501 47.773 118.782zm-62.367-133.921c-12.118 5.657-25.517 10.496-39.836 14.437-2.981-7.494-6.231-14.672-9.753-21.472-7.555-14.586-16.054-26.924-25.271-36.846 28.227 8.959 53.712 24.123 74.86 43.881zm-251.369 153.921c.28 11.595 1.046 23.106 2.291 34.418h-77.074c-2.596-11.29-4.191-22.81-4.779-34.418zm22.418 34.418c-1.312-11.29-2.117-22.806-2.412-34.418h87.063v34.418zm-2.428-54.418c.86-34.372 6.153-67.092 15.334-95.68 22.542 4.865 46.713 7.687 71.745 8.28v87.4zm22.299-114.762c2.435-5.904 5.05-11.583 7.852-16.994 15.94-30.778 35.859-49.592 56.928-54.136v78.485c-22.388-.581-44.283-3.104-64.78-7.355zm84.78 27.364c25.042-.594 49.223-3.414 71.773-8.28 9.181 28.586 14.458 61.309 15.319 95.678h-87.093v-87.398zm56.953-44.358c2.804 5.412 5.42 11.094 7.856 17-20.505 4.251-42.413 6.768-64.809 7.349v-78.486c21.08 4.542 41.008 23.357 56.953 54.137zm-126.38-46.039c-9.213 9.921-17.707 22.258-25.26 36.841-3.521 6.798-6.769 13.974-9.749 21.465-14.317-3.942-27.72-8.778-39.837-14.438 21.143-19.755 46.629-34.908 74.846-43.868zm-89.44 59.021c14.437 7.312 30.465 13.431 47.68 18.276-9.553 30.258-15.035 64.602-15.895 100.498h-79.563c2.275-45.281 19.91-86.574 47.778-118.774zm165.739 278.993h-291.947v-85.801h291.947zm10-105.801h-16.872v-34.418h87.094c-.856 34.348-6.105 66.943-15.386 95.755-14.386-3.114-29.425-5.398-44.836-6.8v-44.538c0-5.522-4.477-9.999-10-9.999zm10 137.343v-21.542-41.18c13.026 1.248 25.735 3.154 37.936 5.685-10.251 24.947-23.382 44.58-37.936 57.037zm22.551 6.086c13.213-14.173 24.791-33.157 34.218-56.329.277-.681.534-1.382.806-2.067 14.34 3.954 27.749 8.811 39.875 14.479-21.082 19.744-46.543 34.947-74.899 43.917zm89.457-59.071c-14.31-7.22-30.391-13.337-47.71-18.2 9.645-30.448 15.076-64.671 15.929-100.576h79.565c-2.279 44.967-19.822 86.4-47.784 118.776z"/><path d="m230.985 482.5c-5.523 0-10 4.477-10 10s4.477 10 10 10h.028c5.523 0 9.986-4.477 9.986-10s-4.491-10-10.014-10z"/></g></g></svg>