<svg id="_x31__x2C_5" enable-background="new 0 0 24 24" height="512" viewBox="0 0 24 24" width="512" xmlns="http://www.w3.org/2000/svg"><path d="m18.804 5.912c-.081 0-.163-.013-.243-.041-.392-.135-.601-.561-.466-.953.079-.231.119-.481.119-.745 0-1.474-1.346-2.674-3-2.674-1.057 0-2.048.511-2.586 1.333-.277.424-.979.424-1.256 0-.538-.821-1.529-1.332-2.586-1.332-1.654 0-3 1.2-3 2.674 0 .263.04.514.119.745.135.392-.074.818-.466.953-.385.133-.818-.074-.952-.466-.133-.388-.201-.803-.201-1.232 0-2.301 2.019-4.174 4.5-4.174 1.234 0 2.378.458 3.214 1.257.836-.799 1.98-1.257 3.214-1.257 2.481 0 4.5 1.873 4.5 4.174 0 .429-.067.844-.201 1.232-.107.311-.398.506-.709.506z"/><path d="m15.214 24c-1.233 0-2.378-.458-3.214-1.257-.836.799-1.98 1.257-3.214 1.257-2.481 0-4.5-1.873-4.5-4.174 0-.073.002-.145.007-.218-1.951-.833-3.222-2.642-3.222-4.674 0-.843.215-1.653.627-2.379-1.075-.878-1.698-2.136-1.698-3.49 0-2.571 2.259-4.663 5.036-4.663 1.595 0 2.893 1.214 2.893 2.707 0 .414-.336.75-.75.75s-.75-.336-.75-.75c0-.654-.638-1.207-1.393-1.207-1.95 0-3.536 1.419-3.536 3.163 0 1.07.603 2.06 1.61 2.648.188.11.319.296.359.511s-.015.436-.151.606c-.489.611-.747 1.339-.747 2.104 0 1.571 1.111 2.961 2.766 3.459.381.115.605.506.514.893-.042.177-.064.363-.064.54 0 1.474 1.346 2.674 3 2.674 1.057 0 2.048-.511 2.586-1.333.277-.424.979-.424 1.256 0 .538.822 1.529 1.333 2.586 1.333 1.654 0 3-1.2 3-2.674 0-.177-.022-.363-.064-.54-.092-.387.133-.778.514-.893 1.654-.498 2.766-1.888 2.766-3.459 0-.766-.258-1.493-.747-2.104-.136-.17-.191-.391-.151-.605s.171-.4.359-.511c1.008-.588 1.61-1.579 1.61-2.648 0-1.744-1.586-3.163-3.536-3.163-.755 0-1.393.553-1.393 1.207s.638 1.207 1.393 1.207c.414 0 .75.336.75.75s-.336.75-.75.75c-1.595 0-2.893-1.214-2.893-2.707s1.298-2.707 2.893-2.707c2.775-.001 5.034 2.091 5.034 4.662 0 1.354-.623 2.612-1.698 3.49.412.726.627 1.536.627 2.379 0 2.032-1.271 3.841-3.222 4.674.005.073.007.145.007.218 0 2.301-2.019 4.174-4.5 4.174z"/><path d="m6.467 19.96c-.79 0-1.467-.183-1.594-.219-.397-.114-.627-.528-.514-.926.113-.397.526-.628.926-.516.498.139 1.687.306 2.191-.076.117-.089.273-.26.273-.723 0-.946-.304-1.25-1.25-1.25-.414 0-.75-.336-.75-.75s.336-.75.75-.75c1.773 0 2.75.977 2.75 2.75 0 1.045-.475 1.622-.872 1.921-.553.418-1.269.539-1.91.539z"/><path d="m15.25 14c-.173 0-.347-.059-.488-.181-.314-.27-.351-.743-.081-1.058l1.081-1.262-1.081-1.262c-.27-.314-.233-.788.081-1.058.314-.269.788-.233 1.058.081l1.5 1.75c.241.281.241.695 0 .977l-1.5 1.75c-.149.174-.359.263-.57.263z"/><path d="m8.75 14c-.211 0-.421-.089-.569-.262l-1.5-1.75c-.241-.281-.241-.695 0-.977l1.5-1.75c.27-.314.743-.351 1.058-.081.314.27.351.743.081 1.058l-1.082 1.262 1.081 1.262c.27.314.233.788-.081 1.058-.141.12-.315.18-.488.18z"/><path d="m11.251 15.5c-.057 0-.113-.006-.17-.019-.403-.093-.655-.496-.562-.899l1.5-6.5c.093-.405.502-.654.899-.563.403.093.655.496.562.899l-1.5 6.5c-.08.348-.388.582-.729.582z"/></svg>